<?xml version="1.0" encoding="utf-8"?>
<!-- Generator: Adobe Illustrator 16.0.0, SVG Export Plug-In . SVG Version: 6.00 Build 0)  -->
<!DOCTYPE svg PUBLIC "-//W3C//DTD SVG 1.1//EN" "http://www.w3.org/Graphics/SVG/1.1/DTD/svg11.dtd">
<svg version="1.1" id="Layer_1" xmlns="http://www.w3.org/2000/svg" xmlns:xlink="http://www.w3.org/1999/xlink" x="0px" y="0px"
	 width="137.662px" height="69.857px" viewBox="0 0 137.662 69.857" enable-background="new 0 0 137.662 69.857"
	 xml:space="preserve">
<path fill="#FFFFFF" d="M61.199,31.859c0,8.422-6.826,15.249-15.247,15.249c-8.42,0-15.246-6.827-15.246-15.249
	c0-8.419,6.826-15.246,15.246-15.246C54.373,16.613,61.199,23.44,61.199,31.859"/>
<path fill="#FFFFFF" d="M43.648,38.153c0,5.384-9.009,9.751-20.121,9.751S3.406,43.537,3.406,38.153c0-5.385,9.009-9.75,20.121-9.75
	S43.648,32.769,43.648,38.153"/>
<path fill="#FFFFFF" d="M73.566,35.459c0,4.9-5.443,8.874-12.157,8.874s-12.155-3.974-12.155-8.874
	c0-4.901,5.441-8.875,12.155-8.875S73.566,30.558,73.566,35.459"/>
<path fill="#FFFFFF" d="M89.939,44.315c0,4.387-9.846,7.939-21.994,7.939c-12.146,0-21.992-3.553-21.992-7.939
	s9.846-7.941,21.992-7.941C80.093,36.374,89.939,39.929,89.939,44.315"/>
<path fill="#FFFFFF" d="M49.647,45.682c0,6.459-8.481,11.693-18.94,11.693c-10.462,0-18.942-5.234-18.942-11.693
	c0-6.461,8.48-11.694,18.942-11.694C41.166,33.987,49.647,39.221,49.647,45.682"/>
<path fill="#FFFFFF" d="M74.994,47.106c0,6.46-8.48,11.694-18.94,11.694c-10.462,0-18.942-5.234-18.942-11.694
	c0-6.459,8.48-11.694,18.942-11.694C66.513,35.412,74.994,40.647,74.994,47.106"/>
<path fill="#FFFFFF" d="M108.921,31.859c0,8.422-6.826,15.249-15.246,15.249c-8.421,0-15.246-6.827-15.246-15.249
	c0-8.419,6.825-15.246,15.246-15.246C102.095,16.613,108.921,23.44,108.921,31.859"/>
<path fill="#FFFFFF" d="M91.372,38.153c0,5.384-9.009,9.751-20.121,9.751s-20.122-4.367-20.122-9.751c0-5.385,9.01-9.75,20.122-9.75
	S91.372,32.769,91.372,38.153"/>
<path fill="#FFFFFF" d="M121.289,35.459c0,4.9-5.443,8.874-12.157,8.874s-12.155-3.974-12.155-8.874
	c0-4.901,5.441-8.875,12.155-8.875S121.289,30.558,121.289,35.459"/>
<path fill="#FFFFFF" d="M137.662,44.315c0,4.387-9.846,7.939-21.993,7.939s-21.993-3.553-21.993-7.939s9.846-7.941,21.993-7.941
	S137.662,39.929,137.662,44.315"/>
<path fill="#FFFFFF" d="M97.371,52.256c0,6.459-8.481,11.694-18.941,11.694c-10.462,0-18.942-5.235-18.942-11.694
	c0-6.458,8.48-11.693,18.942-11.693C88.889,40.563,97.371,45.798,97.371,52.256"/>
<path fill="#FFFFFF" d="M122.717,47.106c0,6.46-8.481,11.694-18.941,11.694c-10.462,0-18.942-5.234-18.942-11.694
	c0-6.459,8.48-11.694,18.942-11.694C114.236,35.412,122.717,40.647,122.717,47.106"/>
<path fill="#FFFFFF" d="M91.372,19.076c0,10.536-9.642,19.077-21.534,19.077s-21.531-8.541-21.531-19.077
	C48.306,8.543,57.945,0,69.837,0S91.372,8.543,91.372,19.076"/>
</svg>
