<?xml version="1.0" encoding="utf-8"?>
<!-- Generator: Adobe Illustrator 16.0.0, SVG Export Plug-In . SVG Version: 6.00 Build 0)  -->
<!DOCTYPE svg PUBLIC "-//W3C//DTD SVG 1.1//EN" "http://www.w3.org/Graphics/SVG/1.1/DTD/svg11.dtd">
<svg version="1.1" id="Layer_1" xmlns="http://www.w3.org/2000/svg" xmlns:xlink="http://www.w3.org/1999/xlink" x="0px" y="0px"
	 width="204.5px" height="39px" viewBox="0 0 204.5 39" enable-background="new 0 0 204.5 39" xml:space="preserve">
<path fill="#024365" d="M20.517,6.106l3.666-0.167c0.695,0,1.081,0.141,1.16,0.42c0.078,0.28,0.118,0.488,0.118,0.621
	c0,0.787-0.275,1.778-0.824,2.977c-0.55,1.199-0.942,1.799-1.177,1.799c-0.236,0-0.354-0.089-0.354-0.27l0.27-2.018
	c0-0.673-0.319-1.216-0.958-1.631c-0.639-0.415-1.351-0.622-2.136-0.622c-0.785,0-1.362,0.057-1.731,0.168
	c-0.37,0.113-0.679,0.349-0.926,0.707c-1.054,1.502-2.443,4.282-4.169,8.34h7.466l0.034,0.033c0,0.157-0.157,0.465-0.471,0.925
	c-0.314,0.46-0.572,0.688-0.773,0.688h-6.962c-2.175,5.292-3.261,8.879-3.261,10.762c0,0.336,0.045,0.584,0.134,0.74H5.282
	c0.605-2.556,1.951-6.391,4.036-11.502h-1.85c-0.18,0-0.269-0.055-0.269-0.167c0-0.224,0.212-0.527,0.639-0.909
	c0.426-0.38,0.773-0.571,1.043-0.571h1.143c1.906-4.506,3.374-7.522,4.406-9.047c-5.067,0.718-8.104,1.939-9.114,3.665
	c-0.022,0.068-0.079,0.101-0.168,0.101s-0.135-0.062-0.135-0.185c0-0.124,0.011-0.207,0.034-0.252
	C5.899,8.38,7.458,6.957,9.722,6.441c1.031-0.224,2.41-0.337,4.136-0.337h6.659V6.106z"/>
<path fill="#024365" d="M33.767,9.066c-0.807,1.637-2.04,3.493-3.699,5.566c-1.659,2.074-3.15,3.739-4.473,4.993l-0.538,1.548
	c-0.269,0.785-0.527,1.738-0.773,2.858c-0.248,1.122-0.359,1.917-0.337,2.388c0,0.673,0.247,1.009,0.74,1.009s1.082-0.28,1.766-0.84
	s1.183-1.047,1.497-1.462c0.313-0.415,0.678-0.959,1.093-1.631c0.415-0.673,0.774-1.256,1.077-1.749
	c0.302-0.492,0.476-0.739,0.521-0.739c0.135,0,0.202,0.208,0.202,0.621c0,0.416-0.112,0.813-0.336,1.194
	c-1.233,2.085-2.231,3.554-2.993,4.406c-1.547,1.704-3.14,2.556-4.776,2.556c-1.256,0-1.882-0.852-1.882-2.556
	c0-1.682,0.75-4.619,2.253-8.812c0.112-0.358,0.37-1.109,0.773-2.252c0.404-1.144,0.751-2.035,1.043-2.674
	c0.291-0.638,0.684-1.485,1.178-2.539c0.493-1.054,0.969-1.894,1.429-2.522c0.458-0.627,0.969-1.266,1.53-1.917
	c1.098-1.301,2.287-1.952,3.565-1.952c1.278,0,1.917,0.583,1.917,1.749C34.541,7.206,34.282,8.125,33.767,9.066z M33.061,5.4h-0.236
	c-1.367,0-3.554,4.104-6.558,12.309c3.071-3.61,5.167-6.569,6.29-8.878c0.627-1.413,0.941-2.338,0.941-2.775
	C33.498,5.62,33.352,5.4,33.061,5.4z"/>
<path fill="#024365" d="M42.881,16.466h1.378c-0.694,0.426-1.401,1.479-2.118,3.16c-0.583,1.413-1.076,2.696-1.48,3.851
	c-0.403,1.155-0.65,1.856-0.739,2.102c-0.09,0.247-0.298,0.847-0.623,1.8s-0.588,1.687-0.79,2.203
	c-0.561,1.569-1.21,2.813-1.951,3.733c-0.74,0.919-1.659,1.652-2.758,2.202c-1.098,0.55-2.208,0.825-3.33,0.825
	s-2.08-0.219-2.875-0.656c-0.796-0.438-1.194-1.127-1.194-2.068c0-0.493,0.151-0.936,0.454-1.329
	c0.304-0.391,0.651-0.589,1.043-0.589c0.392,0,0.723,0.09,0.992,0.27c0.268,0.179,0.459,0.38,0.572,0.605
	c-0.403,0.134-0.605,0.606-0.605,1.413c0,0.426,0.151,0.767,0.455,1.026c0.302,0.257,0.689,0.386,1.16,0.386
	c1.816,0,3.34-1.626,4.573-4.876l1.917-5.112c-1.055,1.324-1.968,2.315-2.741,2.977s-1.379,1.06-1.816,1.194
	s-0.954,0.202-1.547,0.202c-0.595,0-1.071-0.241-1.43-0.723c-0.359-0.482-0.532-1.189-0.521-2.119
	c0.011-0.93,0.28-2.259,0.807-3.985c0.527-1.727,1.11-3.094,1.749-4.103c0.639-1.009,1.3-1.659,1.983-1.952
	c0.684-0.291,1.62-0.436,2.809-0.436c0.089,0,0.134,0.044,0.134,0.134c0,0.09-0.067,0.202-0.202,0.336
	c-0.919,0.807-1.855,2.254-2.808,4.339c-0.954,2.084-1.429,3.845-1.429,5.279c0,0.762,0.213,1.144,0.639,1.144
	c0.807,0,1.839-0.807,3.094-2.422c1.255-1.614,2.219-3.228,2.893-4.843c0.089-0.224,0.218-0.548,0.386-0.975
	c0.168-0.427,0.286-0.717,0.353-0.875c0.068-0.157,0.174-0.375,0.32-0.655c0.146-0.281,0.274-0.472,0.387-0.572
	c0.112-0.102,0.263-0.23,0.454-0.387c0.19-0.156,0.387-0.257,0.588-0.302C41.714,16.532,42.32,16.466,42.881,16.466z"/>
<path fill="#024365" d="M57.038,20.836c0.134,0,0.203,0.219,0.203,0.656c0,0.437-0.18,0.958-0.538,1.563
	c-0.359,0.606-0.713,1.178-1.06,1.715c-0.348,0.538-0.813,1.167-1.396,1.884c-0.583,0.717-1.155,1.29-1.715,1.714
	c-1.413,1.031-2.831,1.547-4.254,1.547c-1.424,0-2.573-0.364-3.447-1.093c-0.874-0.728-1.312-1.844-1.312-3.345
	c0-2.288,0.841-4.407,2.522-6.356c1.682-1.951,3.643-2.926,5.886-2.926c1.009,0,1.816,0.264,2.421,0.79
	c0.606,0.528,0.908,1.16,0.908,1.9c0,1.256-0.594,2.264-1.782,3.027c-1.188,0.762-2.59,1.143-4.204,1.143
	c-0.941,0-1.637-0.123-2.085-0.37c-0.426,1.143-0.639,2.152-0.639,3.027c0,1.883,0.795,2.825,2.387,2.825
	c0.942,0,1.912-0.364,2.909-1.093c0.998-0.728,1.85-1.546,2.556-2.455c0.706-0.909,1.507-2.214,2.404-3.918
	C56.892,20.915,56.971,20.836,57.038,20.836z M53.474,18.18c0-0.65-0.314-0.976-0.942-0.976c-0.874,0-1.849,0.539-2.926,1.615
	c-1.076,1.075-1.614,1.95-1.614,2.623c0,0.449,0.426,0.673,1.278,0.673s1.743-0.415,2.674-1.245
	C52.874,20.042,53.384,19.144,53.474,18.18z"/>
<path fill="#024365" d="M64.638,16.062l1.715,0.033h0.337c-0.337,0.247-0.813,0.975-1.43,2.186c-0.617,1.21-1.076,2.125-1.378,2.741
	c-0.303,0.617-0.639,1.447-1.009,2.489c-0.37,1.043-0.555,1.89-0.555,2.539c0,0.651,0.224,0.976,0.672,0.976
	c0.291-0.022,0.7-0.23,1.228-0.623c0.526-0.392,0.963-0.808,1.311-1.244c0.348-0.438,0.729-0.997,1.144-1.682
	c0.415-0.684,0.773-1.277,1.076-1.783c0.302-0.504,0.476-0.755,0.521-0.755c0.156,0,0.235,0.207,0.235,0.622
	c0,0.415-0.113,0.813-0.336,1.194c-0.964,1.592-1.76,2.813-2.389,3.665c-0.628,0.853-1.384,1.631-2.27,2.338
	c-0.886,0.705-1.687,1.058-2.404,1.058c-1.278,0-1.917-0.942-1.917-2.825c0-1.278,0.246-2.724,0.739-4.338
	c0.493-1.614,1.222-3.173,2.187-4.675c-0.786,0.628-1.57,0.941-2.354,0.941c-0.247,0-0.504-0.055-0.773-0.168
	c-1.592,3.14-2.45,4.708-2.573,4.708c-0.124,0-0.185-0.185-0.185-0.555c0-0.369,0.139-0.884,0.42-1.546
	c0.28-0.661,0.583-1.294,0.909-1.899c0.324-0.605,0.499-0.942,0.521-1.009c-0.807-0.403-1.21-1.054-1.21-1.95
	c0-0.449,0.139-0.852,0.42-1.211c0.28-0.358,0.667-0.538,1.16-0.538c0.493,0,0.896,0.157,1.211,0.471
	c-0.046,0.134-0.067,0.336-0.067,0.605c0,0.605,0.218,1.083,0.656,1.429c0.437,0.349,0.969,0.521,1.597,0.521
	c0.18,0,0.313-0.011,0.403-0.033C63.035,16.623,63.831,16.062,64.638,16.062z"/>
<path fill="#024365" d="M72.743,6.006c0.493,0.292,0.74,0.774,0.74,1.447c0,0.672-0.174,1.334-0.521,1.983
	c-0.348,0.65-0.689,1.228-1.025,1.731c-0.337,0.505-0.797,1.032-1.379,1.581c-0.583,0.549-1.109,0.824-1.581,0.824
	c-0.113,0-0.236-0.022-0.37-0.067c0.313-0.358,0.801-1.031,1.463-2.018c0.661-0.986,1.003-1.614,1.025-1.883h-0.202
	c-0.763,0-1.143-0.426-1.143-1.278c0-0.651,0.229-1.233,0.689-1.749c0.458-0.516,0.98-0.774,1.563-0.774
	C72.249,5.804,72.496,5.872,72.743,6.006z"/>
<path fill="#024365" d="M86.229,22.754c-1.682,2.803-3.207,4.753-4.574,5.851c-1.367,1.099-3.139,1.648-5.314,1.648
	c-1.255,0-2.309-0.242-3.161-0.724c-0.852-0.481-1.278-1.194-1.278-2.135c0-0.538,0.157-1.031,0.471-1.48
	c0.314-0.448,0.746-0.672,1.295-0.672c0.549,0,0.902,0.202,1.059,0.605c-0.427,0.426-0.639,0.92-0.639,1.48
	c0,1.121,0.627,1.681,1.883,1.681c0.74,0,1.384-0.257,1.933-0.773c0.549-0.515,0.824-1.082,0.824-1.699
	c0-0.615-0.134-1.16-0.403-1.63c-0.27-0.471-0.595-0.885-0.976-1.244c-0.382-0.359-0.763-0.717-1.144-1.077
	c-0.919-0.874-1.378-1.876-1.378-3.01c0-1.132,0.431-2.084,1.294-2.858c0.864-0.774,2.046-1.16,3.549-1.16
	c0.941,0,1.737,0.167,2.388,0.505c0.65,0.335,0.975,0.857,0.975,1.564c0,0.706-0.213,1.317-0.639,1.832
	c-0.425,0.516-1.003,0.773-1.731,0.773c-0.729,0-1.093-0.336-1.093-1.009c0-0.156,0.257-0.392,0.773-0.706
	c0.515-0.314,0.773-0.64,0.773-0.975c0-0.336-0.141-0.589-0.421-0.757c-0.28-0.169-0.679-0.252-1.193-0.252
	c-0.516,0-1.015,0.18-1.497,0.539c-0.482,0.359-0.723,0.829-0.723,1.412c0,0.583,0.246,1.133,0.74,1.647
	c0.493,0.518,1.031,0.953,1.613,1.312c0.583,0.359,1.121,0.857,1.615,1.497c0.493,0.638,0.74,1.311,0.74,2.018
	c0,0.706-0.163,1.34-0.488,1.9c-0.325,0.561-0.711,1.009-1.16,1.345c1.255-0.539,2.589-1.883,4.002-4.036
	c0.134-0.179,0.37-0.548,0.706-1.109c0.785-1.413,1.222-2.118,1.312-2.118c0.135,0,0.202,0.207,0.202,0.622
	C86.565,21.975,86.452,22.373,86.229,22.754z"/>
<path fill="#024365" d="M113.989,7.402c1.042,0.863,1.564,1.956,1.564,3.278c0,1.324-0.393,2.489-1.177,3.498
	c-1.391,1.839-3.532,3.027-6.423,3.565l-1.077,0.202c1.121,3.901,3.476,7.757,7.062,11.567c-0.336,0.068-0.852,0.102-1.547,0.102
	l-2.59-0.102c-0.896,0-1.843-0.879-2.842-2.639c-0.998-1.76-1.788-3.553-2.37-5.381c-0.584-1.827-0.875-3.043-0.875-3.649
	c0-0.337,0.157-0.516,0.472-0.538c5.268-0.65,7.98-2.712,8.138-6.188c0-1.232-0.365-2.186-1.093-2.858
	c-0.728-0.673-1.922-1.054-3.582-1.144c-1.749,2.354-3.688,6.121-5.817,11.299c-2.108,5.269-3.162,8.744-3.162,10.425
	c0,0.336,0.045,0.584,0.135,0.74h-4.338c0.628-2.713,1.951-6.479,3.969-11.3c2.69-6.411,4.427-10.054,5.213-10.929
	c-1.906,0.045-3.84,0.432-5.802,1.16c-1.962,0.729-3.1,1.599-3.413,2.607c-0.023,0.067-0.068,0.101-0.134,0.101
	c-0.203,0-0.303-0.146-0.303-0.437c0-0.045,0.022-0.157,0.067-0.336c0.425-1.233,1.043-2.186,1.85-2.859
	c0.807-0.672,1.597-1.087,2.371-1.244c0.774-0.156,1.732-0.236,2.875-0.236h8.171C111.394,6.106,112.947,6.539,113.989,7.402z"/>
<path fill="#024365" d="M127.357,20.836c0.135,0,0.202,0.219,0.202,0.656c0,0.437-0.18,0.958-0.539,1.563
	c-0.359,0.606-0.711,1.178-1.06,1.715c-0.348,0.538-0.813,1.167-1.395,1.884c-0.584,0.717-1.155,1.29-1.716,1.714
	c-1.413,1.031-2.83,1.547-4.253,1.547c-1.424,0-2.573-0.364-3.447-1.093c-0.875-0.728-1.312-1.844-1.312-3.345
	c0-2.288,0.841-4.407,2.522-6.356c1.682-1.951,3.643-2.926,5.885-2.926c1.009,0,1.816,0.264,2.421,0.79
	c0.606,0.528,0.909,1.16,0.909,1.9c0,1.256-0.594,2.264-1.783,3.027c-1.189,0.762-2.59,1.143-4.204,1.143
	c-0.942,0-1.636-0.123-2.084-0.37c-0.425,1.143-0.64,2.152-0.64,3.027c0,1.883,0.797,2.825,2.389,2.825
	c0.941,0,1.911-0.364,2.909-1.093c0.997-0.728,1.85-1.546,2.555-2.455c0.708-0.909,1.508-2.214,2.405-3.918
	C127.211,20.915,127.29,20.836,127.357,20.836z M123.792,18.18c0-0.65-0.314-0.976-0.941-0.976c-0.875,0-1.85,0.539-2.926,1.615
	c-1.076,1.075-1.614,1.95-1.614,2.623c0,0.449,0.425,0.673,1.277,0.673s1.743-0.415,2.673-1.245
	C123.192,20.042,123.702,19.144,123.792,18.18z"/>
<path fill="#024365" d="M149.518,22.82c-0.829,1.392-1.585,2.551-2.269,3.481c-0.685,0.931-1.463,1.744-2.338,2.439
	c-0.874,0.695-1.669,1.042-2.388,1.042c-1.322,0-1.984-0.762-1.984-2.287c0-1.771,0.708-4.293,2.118-7.567
	c0.314-0.829,0.471-1.399,0.471-1.714c0-0.449-0.202-0.673-0.605-0.673c-0.247,0-0.672,0.146-1.276,0.437
	c-0.605,0.292-1.184,0.729-1.733,1.312c-0.549,0.583-0.991,1.122-1.327,1.615c-0.338,0.494-0.707,1.232-1.111,2.22
	c-0.403,0.986-0.672,1.681-0.808,2.084c-0.65,2.019-1.086,3.476-1.31,4.373h-3.297c1.166-3.228,1.967-5.403,2.405-6.525
	c0.437-1.121,0.7-1.815,0.789-2.085l0.302-0.941c0.248-0.718,0.371-1.313,0.371-1.783c0-0.471-0.213-0.706-0.638-0.706
	c-0.36,0-0.847,0.157-1.463,0.471c-0.617,0.314-1.217,0.773-1.799,1.379c-0.584,0.605-1.072,1.306-1.463,2.102
	c-0.393,0.796-0.707,1.484-0.941,2.068c-0.236,0.583-0.477,1.294-0.724,2.136c-0.246,0.84-0.466,1.525-0.656,2.051
	c-0.19,0.527-0.387,1.138-0.588,1.833h-3.262c0.247-0.942,0.516-1.783,0.807-2.522l2.185-5.583c0.896-2.241,1.346-3.878,1.346-4.91
	c0-0.224-0.023-0.37-0.068-0.437h1.412c0.762,0,1.255,0.073,1.479,0.218c0.225,0.146,0.336,0.342,0.336,0.588
	c0,0.247-0.134,0.818-0.403,1.715c1.973-1.793,3.946-2.69,5.919-2.69c1.188,0,1.783,0.493,1.783,1.48
	c0,0.426-0.124,0.953-0.371,1.58c2.04-2.04,4.137-3.06,6.29-3.06c1.165,0,1.748,0.493,1.748,1.48c0,0.449-0.079,0.875-0.236,1.277
	c-0.157,0.404-0.358,0.925-0.605,1.564c-0.246,0.64-0.448,1.167-0.605,1.581c-0.157,0.415-0.337,0.925-0.538,1.531
	c-0.425,1.232-0.639,2.146-0.639,2.74c0,0.595,0.185,0.891,0.555,0.891c0.369,0,0.835-0.246,1.396-0.739
	c0.56-0.492,0.98-0.92,1.261-1.278c0.281-0.359,0.627-0.868,1.043-1.531c0.414-0.66,0.769-1.239,1.059-1.731
	c0.291-0.492,0.46-0.739,0.505-0.739c0.134,0,0.201,0.207,0.201,0.622C149.855,22.042,149.742,22.44,149.518,22.82z"/>
<path fill="#024365" d="M164.484,21.308c0.067-0.134,0.135-0.203,0.202-0.203c0.134,0,0.201,0.169,0.201,0.505
	c0,1.076-0.432,1.967-1.294,2.674c-0.863,0.706-1.67,1.059-2.421,1.059c-0.751,0-1.396-0.213-1.934-0.639
	c-0.807,1.592-1.766,2.847-2.875,3.767c-1.11,0.919-2.538,1.378-4.288,1.378c-1.122,0-2.035-0.342-2.741-1.025
	c-0.708-0.685-1.06-1.727-1.06-3.128c0-1.4,0.32-2.847,0.958-4.338c0.639-1.491,1.604-2.774,2.893-3.851
	c1.289-1.076,2.729-1.614,4.321-1.614c2.668,0,4.003,1.412,4.003,4.237c0,1.077-0.236,2.209-0.708,3.396
	c0.336,0.471,0.819,0.707,1.446,0.707C162.354,24.234,163.452,23.258,164.484,21.308z M158.867,19.222
	c-0.088-1.188-0.627-1.782-1.613-1.782c-1.546,0-3.06,1.502-4.54,4.506c-0.808,1.66-1.211,3.161-1.211,4.506s0.583,2.052,1.75,2.119
	c0.963,0,1.854-0.509,2.673-1.53c0.818-1.021,1.507-2.147,2.069-3.38c-0.763-0.65-1.145-1.468-1.145-2.455
	c0-0.605,0.163-1.087,0.487-1.446c0.325-0.358,0.768-0.538,1.33-0.538L158.867,19.222L158.867,19.222z"/>
<path fill="#024365" d="M172.42,16.062l1.715,0.033h0.336c-0.336,0.247-0.813,0.975-1.43,2.186c-0.616,1.21-1.075,2.125-1.377,2.741
	c-0.302,0.617-0.639,1.447-1.01,2.489c-0.37,1.043-0.553,1.89-0.553,2.539c0,0.651,0.223,0.976,0.672,0.976
	c0.291-0.022,0.701-0.23,1.228-0.623c0.527-0.392,0.963-0.808,1.312-1.244c0.347-0.438,0.729-0.997,1.144-1.682
	c0.414-0.684,0.773-1.277,1.076-1.783c0.302-0.504,0.475-0.755,0.52-0.755c0.157,0,0.236,0.207,0.236,0.622
	c0,0.415-0.112,0.813-0.336,1.194c-0.964,1.592-1.761,2.813-2.388,3.665c-0.627,0.853-1.384,1.631-2.27,2.338
	c-0.886,0.705-1.688,1.058-2.404,1.058c-1.279,0-1.918-0.942-1.918-2.825c0-1.278,0.248-2.724,0.741-4.338
	c0.492-1.614,1.22-3.173,2.186-4.675c-0.787,0.628-1.57,0.941-2.354,0.941c-0.248,0-0.505-0.055-0.775-0.168
	c-1.592,3.14-2.45,4.708-2.572,4.708c-0.124,0-0.186-0.185-0.186-0.555c0-0.369,0.14-0.884,0.421-1.546
	c0.28-0.661,0.583-1.294,0.908-1.899c0.324-0.605,0.499-0.942,0.521-1.009c-0.806-0.403-1.211-1.054-1.211-1.95
	c0-0.449,0.141-0.852,0.421-1.211c0.28-0.358,0.667-0.538,1.16-0.538c0.492,0,0.897,0.157,1.211,0.471
	c-0.045,0.134-0.068,0.336-0.068,0.605c0,0.605,0.218,1.083,0.656,1.429c0.438,0.349,0.968,0.521,1.597,0.521
	c0.179,0,0.315-0.011,0.404-0.033C170.817,16.623,171.614,16.062,172.42,16.062z"/>
<path fill="#024365" d="M188.663,22.754c-1.681,2.803-3.205,4.753-4.573,5.851c-1.368,1.099-3.138,1.648-5.313,1.648
	c-1.256,0-2.31-0.242-3.16-0.724c-0.853-0.481-1.278-1.194-1.278-2.135c0-0.538,0.156-1.031,0.47-1.48
	c0.314-0.448,0.746-0.672,1.293-0.672c0.55,0,0.903,0.202,1.061,0.605c-0.427,0.426-0.639,0.92-0.639,1.48
	c0,1.121,0.627,1.681,1.883,1.681c0.74,0,1.384-0.257,1.934-0.773c0.549-0.515,0.823-1.082,0.823-1.699
	c0-0.615-0.134-1.16-0.403-1.63c-0.27-0.471-0.595-0.885-0.975-1.244c-0.383-0.359-0.763-0.717-1.144-1.077
	c-0.919-0.874-1.379-1.876-1.379-3.01c0-1.132,0.431-2.084,1.295-2.858c0.863-0.774,2.045-1.16,3.548-1.16
	c0.942,0,1.737,0.167,2.388,0.505c0.65,0.335,0.976,0.857,0.976,1.564c0,0.706-0.213,1.317-0.64,1.832
	c-0.424,0.516-1.003,0.773-1.73,0.773c-0.729,0-1.093-0.336-1.093-1.009c0-0.156,0.257-0.392,0.774-0.706
	c0.515-0.314,0.772-0.64,0.772-0.975c0-0.336-0.14-0.589-0.42-0.757c-0.28-0.169-0.679-0.252-1.194-0.252
	c-0.517,0-1.015,0.18-1.497,0.539c-0.483,0.359-0.723,0.829-0.723,1.412c0,0.583,0.247,1.133,0.741,1.647
	c0.493,0.518,1.03,0.953,1.613,1.312c0.584,0.359,1.122,0.857,1.615,1.497c0.492,0.638,0.739,1.311,0.739,2.018
	c0,0.706-0.162,1.34-0.486,1.9c-0.326,0.561-0.712,1.009-1.16,1.345c1.254-0.539,2.588-1.883,4.001-4.036
	c0.135-0.179,0.37-0.548,0.707-1.109c0.784-1.413,1.222-2.118,1.312-2.118c0.135,0,0.201,0.207,0.201,0.622
	C189,21.975,188.887,22.373,188.663,22.754z"/>
<path fill="#024365" d="M200.871,20.836c0.135,0,0.202,0.219,0.202,0.656c0,0.437-0.18,0.958-0.539,1.563
	c-0.359,0.606-0.712,1.178-1.06,1.715c-0.348,0.538-0.813,1.167-1.395,1.884c-0.584,0.717-1.156,1.29-1.716,1.714
	c-1.413,1.031-2.83,1.547-4.253,1.547c-1.424,0-2.573-0.364-3.448-1.093c-0.873-0.728-1.311-1.844-1.311-3.345
	c0-2.288,0.841-4.407,2.521-6.356c1.682-1.951,3.643-2.926,5.886-2.926c1.009,0,1.816,0.264,2.421,0.79
	c0.605,0.528,0.908,1.16,0.908,1.9c0,1.256-0.593,2.264-1.782,3.027c-1.189,0.762-2.589,1.143-4.204,1.143
	c-0.941,0-1.637-0.123-2.085-0.37c-0.426,1.143-0.638,2.152-0.638,3.027c0,1.883,0.796,2.825,2.388,2.825
	c0.941,0,1.911-0.364,2.908-1.093c0.998-0.728,1.85-1.546,2.556-2.455c0.708-0.909,1.508-2.214,2.404-3.918
	C200.726,20.915,200.804,20.836,200.871,20.836z M197.306,18.18c0-0.65-0.314-0.976-0.941-0.976c-0.875,0-1.85,0.539-2.927,1.615
	c-1.076,1.075-1.614,1.95-1.614,2.623c0,0.449,0.425,0.673,1.278,0.673c0.852,0,1.744-0.415,2.673-1.245
	C196.706,20.042,197.216,19.144,197.306,18.18z"/>
</svg>
