<?xml version="1.0" encoding="utf-8"?>
<!-- Generator: Adobe Illustrator 16.0.0, SVG Export Plug-In . SVG Version: 6.00 Build 0)  -->
<!DOCTYPE svg PUBLIC "-//W3C//DTD SVG 1.1//EN" "http://www.w3.org/Graphics/SVG/1.1/DTD/svg11.dtd">
<svg version="1.1" id="Layer_1" xmlns="http://www.w3.org/2000/svg" xmlns:xlink="http://www.w3.org/1999/xlink" x="0px" y="0px"
	 width="20px" height="20px" viewBox="0 0 20 20" enable-background="new 0 0 20 20" xml:space="preserve">
<path fill="#FFFFFF" d="M18.986,16.324l-4.363-4.268c-0.648,0.988-1.512,1.83-2.521,2.465l4.364,4.269
	c0.695,0.683,1.825,0.683,2.521,0C19.684,18.109,19.684,17.006,18.986,16.324L18.986,16.324z"/>
<path fill="#FFFFFF" d="M14.754,7.675c0-3.852-3.193-6.976-7.132-6.976c-3.939,0-7.132,3.124-7.132,6.976
	c0,3.853,3.193,6.976,7.132,6.976C11.561,14.65,14.754,11.527,14.754,7.675L14.754,7.675z M7.622,12.906
	c-2.95,0-5.349-2.346-5.349-5.231c0-2.885,2.399-5.231,5.349-5.231s5.349,2.346,5.349,5.231
	C12.971,10.561,10.572,12.906,7.622,12.906L7.622,12.906z"/>
<path fill="#FFFFFF" d="M3.461,7.675H4.65c0-1.603,1.333-2.906,2.971-2.906V3.605C5.329,3.605,3.461,5.431,3.461,7.675L3.461,7.675z
	"/>
</svg>
