<?xml version="1.0" encoding="utf-8"?>
<!-- Generator: Adobe Illustrator 16.0.0, SVG Export Plug-In . SVG Version: 6.00 Build 0)  -->
<!DOCTYPE svg PUBLIC "-//W3C//DTD SVG 1.1//EN" "http://www.w3.org/Graphics/SVG/1.1/DTD/svg11.dtd">
<svg version="1.1" id="Layer_1" xmlns="http://www.w3.org/2000/svg" xmlns:xlink="http://www.w3.org/1999/xlink" x="0px" y="0px"
	 width="35px" height="35px" viewBox="0 0 35 35" enable-background="new 0 0 35 35" xml:space="preserve">
<g>
	<g>
		<path fill="#024365" d="M33.391,28.934l-7.716-7.717c-1.149,1.789-2.671,3.309-4.459,4.459l7.716,7.715
			c1.232,1.231,3.229,1.231,4.459,0C34.622,32.162,34.622,30.165,33.391,28.934z"/>
		<path fill="#024365" d="M25.906,13.296c0-6.964-5.646-12.611-12.611-12.611c-6.964,0-12.61,5.646-12.61,12.611
			c0,6.966,5.646,12.61,12.61,12.61C20.26,25.906,25.906,20.262,25.906,13.296z M13.295,22.754c-5.215,0-9.458-4.24-9.458-9.458
			c0-5.216,4.242-9.458,9.458-9.458c5.217,0,9.459,4.242,9.459,9.458C22.754,18.514,18.512,22.754,13.295,22.754z"/>
		<path fill="#024365" d="M5.939,13.296h2.102c0-2.897,2.358-5.254,5.254-5.254V5.94C9.24,5.94,5.939,9.241,5.939,13.296z"/>
	</g>
</g>
</svg>
