<?xml version="1.0" encoding="utf-8"?>
<!-- Generator: Adobe Illustrator 16.0.0, SVG Export Plug-In . SVG Version: 6.00 Build 0)  -->
<!DOCTYPE svg PUBLIC "-//W3C//DTD SVG 1.1//EN" "http://www.w3.org/Graphics/SVG/1.1/DTD/svg11.dtd">
<svg version="1.1" id="Layer_1" xmlns="http://www.w3.org/2000/svg" xmlns:xlink="http://www.w3.org/1999/xlink" x="0px" y="0px"
	 width="551.415px" height="110.25px" viewBox="0 64.25 551.415 110.25" enable-background="new 0 64.25 551.415 110.25"
	 xml:space="preserve">
<path fill="#024364" d="M50.974,81.929l10.001-0.456c1.896,0,2.949,0.384,3.165,1.146c0.214,0.765,0.321,1.331,0.321,1.696
	c0,2.145-0.751,4.851-2.248,8.121c-1.5,3.272-2.571,4.908-3.212,4.908s-0.963-0.243-0.963-0.734l0.734-5.505
	c0-1.835-0.872-3.315-2.614-4.451c-1.744-1.13-3.688-1.696-5.827-1.696c-2.142,0-3.715,0.153-4.725,0.458
	c-1.01,0.308-1.851,0.95-2.524,1.926c-2.875,4.099-6.667,11.685-11.377,22.756h20.37l0.093,0.09c0,0.429-0.429,1.27-1.285,2.523
	c-0.857,1.256-1.56,1.88-2.11,1.88H29.779c-5.934,14.438-8.899,24.223-8.899,29.361c0,0.915,0.122,1.59,0.367,2.019H9.409
	c1.652-6.975,5.323-17.435,11.012-31.38h-5.047c-0.491,0-0.733-0.15-0.733-0.458c0-0.611,0.579-1.437,1.742-2.479
	c1.162-1.037,2.11-1.558,2.845-1.558h3.12c5.198-12.294,9.206-20.522,12.02-24.683c-13.825,1.959-22.112,5.292-24.865,10.002
	c-0.063,0.183-0.216,0.274-0.459,0.274c-0.245,0-0.368-0.169-0.368-0.505s0.03-0.563,0.093-0.688
	c2.323-6.363,6.575-10.245,12.754-11.653c2.813-0.61,6.577-0.918,11.286-0.918h18.167V81.929z"/>
<path fill="#024364" d="M87.123,90.004c-2.201,4.466-5.566,9.529-10.092,15.187c-4.527,5.657-8.594,10.2-12.204,13.623l-1.467,4.222
	c-0.734,2.143-1.438,4.742-2.109,7.799c-0.675,3.062-0.98,5.229-0.918,6.515c0,1.835,0.672,2.752,2.018,2.752
	c1.345,0,2.952-0.763,4.817-2.292c1.866-1.529,3.226-2.859,4.083-3.99c0.856-1.131,1.85-2.617,2.982-4.452
	c1.131-1.835,2.11-3.425,2.936-4.77c0.824-1.344,1.299-2.019,1.422-2.019c0.368,0,0.55,0.564,0.55,1.696
	c0,1.131-0.307,2.217-0.917,3.257c-3.365,5.689-6.087,9.695-8.166,12.021c-4.222,4.649-8.565,6.971-13.029,6.971
	c-3.427,0-5.138-2.321-5.138-6.971c0-4.589,2.048-12.601,6.148-24.043c0.306-0.976,1.009-3.025,2.109-6.144
	c1.102-3.12,2.049-5.552,2.846-7.296c0.794-1.743,1.864-4.051,3.212-6.927c1.344-2.875,2.644-5.168,3.899-6.883
	c1.252-1.712,2.645-3.453,4.174-5.229c2.997-3.548,6.238-5.324,9.726-5.324c3.486,0,5.23,1.592,5.23,4.771
	C89.234,84.929,88.53,87.435,87.123,90.004z M85.197,80.005h-0.643c-3.731,0-9.695,11.194-17.892,33.581
	c8.379-9.849,14.097-17.923,17.159-24.222c1.711-3.854,2.568-6.38,2.568-7.571C86.389,80.603,85.991,80.005,85.197,80.005z"/>
<path fill="#024364" d="M111.988,110.191h3.76c-1.896,1.163-3.822,4.038-5.781,8.624c-1.59,3.855-2.936,7.358-4.037,10.508
	c-1.101,3.149-1.774,5.062-2.018,5.732c-0.246,0.675-0.812,2.312-1.699,4.91c-0.886,2.6-1.605,4.602-2.155,6.009
	c-1.529,4.283-3.302,7.677-5.321,10.185c-2.019,2.509-4.527,4.512-7.524,6.01c-2.997,1.5-6.025,2.249-9.084,2.249
	c-3.059,0-5.674-0.598-7.844-1.789c-2.171-1.194-3.257-3.074-3.257-5.642c0-1.347,0.413-2.556,1.238-3.625
	c0.827-1.068,1.776-1.605,2.845-1.605s1.973,0.243,2.707,0.732c0.733,0.489,1.253,1.04,1.56,1.652
	c-1.101,0.367-1.651,1.652-1.651,3.854c0,1.161,0.413,2.093,1.24,2.798c0.824,0.703,1.881,1.055,3.165,1.055
	c4.955,0,9.113-4.435,12.478-13.302l5.23-13.948c-2.876,3.609-5.369,6.316-7.479,8.121s-3.763,2.89-4.955,3.258
	c-1.192,0.366-2.601,0.549-4.222,0.549c-1.621,0-2.92-0.657-3.899-1.972c-0.979-1.313-1.453-3.242-1.422-5.78
	c0.031-2.539,0.765-6.162,2.202-10.874c1.437-4.711,3.028-8.442,4.771-11.193c1.744-2.753,3.547-4.525,5.413-5.325
	c1.865-0.793,4.419-1.19,7.662-1.19c0.244,0,0.368,0.124,0.368,0.366c0,0.248-0.184,0.552-0.551,0.919
	c-2.509,2.201-5.063,6.147-7.662,11.837c-2.601,5.689-3.899,10.489-3.899,14.404c0,2.079,0.581,3.118,1.744,3.118
	c2.202,0,5.016-2.201,8.441-6.604c3.424-4.403,6.055-8.809,7.892-13.212c0.244-0.611,0.596-1.498,1.055-2.661
	s0.781-1.956,0.963-2.385c0.186-0.429,0.474-1.024,0.874-1.789c0.397-0.765,0.748-1.286,1.054-1.562
	c0.307-0.275,0.719-0.627,1.239-1.055c0.52-0.427,1.056-0.702,1.606-0.825C108.805,110.374,110.458,110.191,111.988,110.191z"/>
<path fill="#024364" d="M150.614,122.117c0.366,0,0.552,0.599,0.552,1.789c0,1.193-0.491,2.617-1.467,4.269
	c-0.98,1.65-1.945,3.212-2.891,4.679c-0.948,1.468-2.217,3.183-3.808,5.14c-1.59,1.956-3.151,3.517-4.68,4.678
	c-3.853,2.812-7.723,4.22-11.604,4.22c-3.886,0-7.021-0.993-9.405-2.982c-2.386-1.987-3.581-5.03-3.581-9.128
	c0-6.241,2.294-12.021,6.883-17.34c4.588-5.322,9.938-7.984,16.058-7.984c2.753,0,4.955,0.721,6.606,2.156
	c1.653,1.439,2.478,3.165,2.478,5.184c0,3.427-1.622,6.179-4.862,8.259c-3.244,2.08-7.066,3.12-11.471,3.12
	c-2.568,0-4.465-0.338-5.688-1.012c-1.163,3.12-1.744,5.873-1.744,8.259c0,5.139,2.169,7.707,6.513,7.707
	c2.569,0,5.215-0.994,7.937-2.982c2.722-1.987,5.046-4.222,6.972-6.698c1.928-2.479,4.114-6.041,6.561-10.69
	C150.216,122.332,150.431,122.117,150.614,122.117z M140.889,114.87c0-1.771-0.858-2.661-2.57-2.661
	c-2.384,0-5.045,1.469-7.982,4.406c-2.936,2.935-4.403,5.319-4.403,7.156c0,1.225,1.16,1.836,3.485,1.836s4.756-1.132,7.295-3.397
	C139.252,119.95,140.643,117.5,140.889,114.87z"/>
<path fill="#024364" d="M171.349,109.091l4.68,0.09h0.918c-0.918,0.675-2.217,2.662-3.9,5.964c-1.683,3.303-2.936,5.797-3.76,7.479
	c-0.827,1.683-1.744,3.948-2.753,6.79c-1.01,2.847-1.515,5.154-1.515,6.927c0,1.776,0.611,2.66,1.835,2.66
	c0.793-0.059,1.91-0.625,3.349-1.696c1.437-1.069,2.629-2.202,3.577-3.393c0.949-1.196,1.987-2.723,3.12-4.588
	c1.132-1.866,2.111-3.488,2.937-4.865c0.824-1.375,1.296-2.063,1.422-2.063c0.426,0,0.642,0.566,0.642,1.698
	c0,1.13-0.307,2.218-0.917,3.258c-2.63,4.342-4.803,7.676-6.516,9.999c-1.713,2.326-3.776,4.451-6.192,6.378
	c-2.417,1.926-4.603,2.889-6.56,2.889c-3.487,0-5.23-2.569-5.23-7.706c0-3.486,0.672-7.432,2.018-11.835
	c1.344-4.405,3.334-8.658,5.964-12.754c-2.143,1.712-4.283,2.567-6.423,2.567c-0.673,0-1.376-0.151-2.11-0.457
	c-4.343,8.563-6.683,12.845-7.019,12.845c-0.337,0-0.505-0.505-0.505-1.516c0-1.007,0.381-2.413,1.147-4.22
	c0.765-1.803,1.589-3.531,2.478-5.184c0.885-1.651,1.36-2.567,1.422-2.753c-2.203-1.101-3.302-2.874-3.302-5.321
	c0-1.223,0.379-2.324,1.146-3.303c0.765-0.977,1.819-1.469,3.166-1.469c1.346,0,2.445,0.428,3.304,1.286
	c-0.125,0.365-0.184,0.916-0.184,1.651c0,1.651,0.597,2.952,1.791,3.897c1.192,0.95,2.645,1.421,4.358,1.421
	c0.49,0,0.854-0.028,1.101-0.091C166.976,110.62,169.146,109.091,171.349,109.091z"/>
<path fill="#024364" d="M193.461,81.656c1.344,0.797,2.018,2.112,2.018,3.947s-0.475,3.64-1.422,5.413
	c-0.949,1.773-1.881,3.349-2.798,4.723c-0.918,1.379-2.174,2.815-3.761,4.314c-1.592,1.499-3.027,2.248-4.313,2.248
	c-0.307,0-0.643-0.061-1.008-0.183c0.855-0.978,2.186-2.813,3.992-5.507c1.804-2.689,2.738-4.402,2.798-5.137h-0.552
	c-2.08,0-3.118-1.16-3.118-3.486c0-1.776,0.625-3.363,1.881-4.771c1.251-1.408,2.674-2.113,4.266-2.113
	C192.114,81.104,192.787,81.288,193.461,81.656z"/>
<path fill="#024364" d="M230.254,127.349c-4.589,7.647-8.748,12.969-12.478,15.964c-3.731,2.998-8.564,4.499-14.498,4.499
	c-3.425,0-6.3-0.659-8.625-1.976c-2.325-1.314-3.488-3.258-3.488-5.825c0-1.469,0.429-2.812,1.285-4.038
	c0.856-1.223,2.034-1.834,3.534-1.834c1.496,0,2.46,0.551,2.889,1.651c-1.164,1.161-1.744,2.508-1.744,4.038
	c0,3.059,1.712,4.585,5.138,4.585c2.019,0,3.775-0.701,5.274-2.108c1.499-1.405,2.248-2.952,2.248-4.636
	c0-1.681-0.366-3.164-1.101-4.448c-0.734-1.286-1.622-2.416-2.662-3.393c-1.04-0.98-2.078-1.958-3.118-2.938
	c-2.509-2.387-3.762-5.122-3.762-8.213c0-3.088,1.176-5.688,3.531-7.796c2.355-2.111,5.582-3.167,9.683-3.167
	c2.567,0,4.738,0.458,6.513,1.377c1.773,0.917,2.661,2.338,2.661,4.267c0,1.927-0.581,3.594-1.743,5
	c-1.161,1.408-2.737,2.107-4.725,2.107c-1.989,0-2.981-0.916-2.981-2.752c0-0.426,0.702-1.068,2.11-1.923
	c1.406-0.857,2.11-1.747,2.11-2.662c0-0.919-0.384-1.606-1.148-2.064c-0.765-0.46-1.852-0.688-3.257-0.688
	c-1.407,0-2.769,0.489-4.082,1.469c-1.317,0.979-1.973,2.262-1.973,3.853c0,1.592,0.672,3.091,2.019,4.495
	c1.346,1.408,2.813,2.599,4.403,3.579c1.59,0.978,3.058,2.338,4.404,4.084c1.346,1.743,2.019,3.578,2.019,5.504
	c0,1.927-0.444,3.657-1.331,5.184c-0.886,1.53-1.941,2.755-3.164,3.671c3.424-1.469,7.063-5.137,10.919-11.011
	c0.366-0.489,1.01-1.498,1.926-3.025c2.143-3.854,3.335-5.781,3.579-5.781c0.368,0,0.552,0.564,0.552,1.696
	C231.172,125.224,230.863,126.311,230.254,127.349z"/>
<path fill="#024364" d="M305.993,85.464c2.845,2.354,4.269,5.336,4.269,8.945c0,3.61-1.072,6.789-3.213,9.541
	c-3.795,5.019-9.636,8.258-17.525,9.727l-2.937,0.552c3.058,10.644,9.482,21.163,19.268,31.561
	c-0.917,0.186-2.325,0.277-4.221,0.277l-7.063-0.277c-2.446,0-5.032-2.399-7.754-7.202c-2.723-4.8-4.879-9.695-6.468-14.681
	c-1.592-4.984-2.386-8.304-2.386-9.955c0-0.918,0.428-1.407,1.286-1.468c14.372-1.773,21.773-7.4,22.203-16.883
	c0-3.363-0.995-5.961-2.983-7.799c-1.987-1.835-5.244-2.875-9.771-3.119c-4.772,6.422-10.062,16.697-15.873,30.827
	c-5.751,14.374-8.625,23.857-8.625,28.443c0,0.918,0.122,1.593,0.368,2.019h-11.836c1.712-7.399,5.321-17.676,10.828-30.828
	c7.34-17.492,12.079-27.435,14.221-29.819c-5.2,0.122-10.476,1.179-15.827,3.164c-5.354,1.988-8.457,4.36-9.313,7.112
	c-0.063,0.183-0.185,0.274-0.367,0.274c-0.552,0-0.825-0.397-0.825-1.192c0-0.122,0.06-0.428,0.183-0.915
	c1.161-3.365,2.846-5.966,5.047-7.801c2.202-1.835,4.358-2.966,6.469-3.395c2.11-0.426,4.725-0.643,7.845-0.643h22.296
	C298.913,81.929,303.148,83.111,305.993,85.464z"/>
<path fill="#024364" d="M342.464,122.117c0.369,0,0.552,0.599,0.552,1.789c0,1.193-0.49,2.617-1.468,4.269
	c-0.98,1.65-1.942,3.212-2.892,4.679c-0.949,1.468-2.217,3.183-3.805,5.14c-1.593,1.956-3.153,3.517-4.681,4.678
	c-3.855,2.812-7.725,4.22-11.607,4.22c-3.886,0-7.021-0.993-9.404-2.982c-2.386-1.987-3.579-5.03-3.579-9.128
	c0-6.241,2.294-12.021,6.882-17.34c4.587-5.322,9.938-7.984,16.056-7.984c2.754,0,4.955,0.721,6.606,2.156
	c1.652,1.439,2.479,3.165,2.479,5.184c0,3.427-1.62,6.179-4.862,8.259c-3.243,2.08-7.065,3.12-11.47,3.12
	c-2.569,0-4.466-0.338-5.689-1.012c-1.16,3.12-1.743,5.873-1.743,8.259c0,5.139,2.172,7.707,6.516,7.707
	c2.568,0,5.214-0.994,7.937-2.982c2.721-1.987,5.048-4.222,6.973-6.698c1.93-2.479,4.115-6.041,6.56-10.69
	C342.067,122.332,342.281,122.117,342.464,122.117z M332.738,114.87c0-1.771-0.857-2.661-2.567-2.661
	c-2.387,0-5.048,1.469-7.985,4.406c-2.935,2.935-4.402,5.319-4.402,7.156c0,1.225,1.161,1.836,3.485,1.836
	c2.325,0,4.757-1.132,7.295-3.397C331.1,119.95,332.494,117.5,332.738,114.87z"/>
<path fill="#024364" d="M402.927,127.531c-2.263,3.795-4.326,6.961-6.192,9.497c-1.865,2.539-3.992,4.755-6.378,6.652
	s-4.558,2.843-6.517,2.843c-3.607,0-5.413-2.078-5.413-6.238c0-4.831,1.929-11.714,5.778-20.646c0.857-2.262,1.286-3.82,1.286-4.678
	c0-1.225-0.552-1.836-1.652-1.836c-0.675,0-1.834,0.399-3.484,1.193c-1.653,0.794-3.231,1.987-4.727,3.576
	c-1.501,1.592-2.705,3.061-3.622,4.404c-0.921,1.349-1.93,3.363-3.03,6.056c-1.1,2.692-1.833,4.587-2.202,5.689
	c-1.774,5.505-2.966,9.482-3.576,11.927h-8.993c3.181-8.806,5.365-14.74,6.561-17.799c1.191-3.059,1.912-4.955,2.154-5.688
	l0.824-2.568c0.675-1.958,1.012-3.58,1.012-4.863c0-1.286-0.583-1.927-1.743-1.927c-0.979,0-2.312,0.428-3.99,1.283
	c-1.684,0.857-3.321,2.111-4.909,3.762c-1.591,1.651-2.924,3.564-3.991,5.735c-1.071,2.173-1.929,4.053-2.568,5.645
	c-0.644,1.587-1.299,3.531-1.975,5.823c-0.673,2.293-1.271,4.163-1.789,5.6c-0.52,1.437-1.055,3.104-1.606,4.998h-8.897
	c0.674-2.569,1.408-4.862,2.202-6.882l5.961-15.231c2.446-6.115,3.673-10.582,3.673-13.395c0-0.611-0.063-1.008-0.184-1.192h3.852
	c2.079,0,3.427,0.2,4.038,0.597c0.61,0.398,0.916,0.932,0.916,1.605c0,0.673-0.364,2.231-1.099,4.68
	c5.382-4.893,10.766-7.341,16.148-7.341c3.24,0,4.864,1.346,4.864,4.038c0,1.162-0.338,2.599-1.013,4.311
	c5.566-5.564,11.287-8.349,17.159-8.349c3.179,0,4.771,1.346,4.771,4.038c0,1.226-0.214,2.386-0.644,3.485
	c-0.428,1.104-0.977,2.524-1.651,4.268c-0.672,1.745-1.224,3.184-1.651,4.313c-0.429,1.133-0.918,2.523-1.469,4.176
	c-1.16,3.363-1.743,5.856-1.743,7.478c0,1.622,0.506,2.431,1.515,2.431c1.007,0,2.279-0.671,3.808-2.02
	c1.528-1.343,2.674-2.507,3.441-3.485c0.766-0.979,1.711-2.369,2.846-4.176c1.13-1.802,2.096-3.379,2.89-4.724
	c0.794-1.344,1.254-2.019,1.377-2.019c0.366,0,0.549,0.564,0.549,1.696C403.843,125.405,403.539,126.491,402.927,127.531z"/>
<path fill="#024364" d="M443.757,123.403c0.183-0.366,0.369-0.55,0.552-0.55c0.366,0,0.549,0.46,0.549,1.377
	c0,2.936-1.177,5.367-3.531,7.294c-2.354,1.926-4.558,2.89-6.607,2.89c-2.048,0-3.808-0.58-5.273-1.744
	c-2.204,4.345-4.818,7.77-7.846,10.277c-3.029,2.509-6.926,3.763-11.699,3.763c-3.061,0-5.552-0.934-7.477-2.799
	c-1.93-1.866-2.893-4.711-2.893-8.534c0-3.821,0.872-7.768,2.616-11.836c1.742-4.067,4.374-7.567,7.892-10.506
	c3.517-2.935,7.446-4.403,11.788-4.403c7.281,0,10.922,3.853,10.922,11.56c0,2.937-0.643,6.027-1.931,9.267
	c0.919,1.286,2.235,1.929,3.947,1.929C437.946,131.387,440.942,128.725,443.757,123.403z M428.434,117.714
	c-0.243-3.241-1.712-4.863-4.403-4.863c-4.219,0-8.348,4.099-12.386,12.297c-2.203,4.527-3.303,8.623-3.303,12.294
	c0,3.67,1.588,5.599,4.771,5.781c2.627,0,5.059-1.391,7.294-4.176c2.231-2.783,4.111-5.856,5.644-9.219
	c-2.08-1.775-3.121-4.006-3.121-6.7c0-1.65,0.443-2.966,1.328-3.945c0.884-0.979,2.095-1.469,3.627-1.469H428.434z"/>
<path fill="#024364" d="M465.411,109.091l4.68,0.09h0.917c-0.917,0.675-2.216,2.662-3.9,5.964c-1.683,3.303-2.934,5.797-3.759,7.479
	c-0.824,1.683-1.744,3.948-2.755,6.79c-1.009,2.847-1.509,5.154-1.509,6.927c0,1.776,0.605,2.66,1.833,2.66
	c0.794-0.059,1.912-0.625,3.349-1.696c1.438-1.069,2.628-2.202,3.579-3.393c0.948-1.196,1.988-2.723,3.12-4.588
	c1.131-1.866,2.111-3.488,2.937-4.865c0.826-1.375,1.297-2.063,1.42-2.063c0.429,0,0.645,0.566,0.645,1.698
	c0,1.13-0.308,2.218-0.918,3.258c-2.631,4.342-4.805,7.676-6.515,9.999c-1.711,2.326-3.777,4.451-6.192,6.378
	c-2.416,1.926-4.604,2.889-6.56,2.889c-3.489,0-5.232-2.569-5.232-7.706c0-3.486,0.675-7.432,2.021-11.835
	c1.342-4.405,3.33-8.658,5.963-12.754c-2.145,1.712-4.284,2.567-6.424,2.567c-0.675,0-1.377-0.151-2.112-0.457
	c-4.343,8.563-6.685,12.845-7.018,12.845c-0.338,0-0.507-0.505-0.507-1.516c0-1.007,0.384-2.413,1.151-4.22
	c0.762-1.803,1.587-3.531,2.477-5.184c0.884-1.651,1.36-2.567,1.419-2.753c-2.198-1.101-3.303-2.874-3.303-5.321
	c0-1.223,0.382-2.324,1.149-3.303c0.762-0.977,1.82-1.469,3.166-1.469c1.343,0,2.445,0.428,3.302,1.286
	c-0.121,0.365-0.185,0.916-0.185,1.651c0,1.651,0.597,2.952,1.791,3.897c1.192,0.95,2.643,1.421,4.357,1.421
	c0.489,0,0.858-0.028,1.101-0.091C461.034,110.62,463.211,109.091,465.411,109.091z"/>
<path fill="#024364" d="M509.726,127.349c-4.587,7.647-8.745,12.969-12.478,15.964c-3.73,2.998-8.563,4.499-14.498,4.499
	c-3.425,0-6.3-0.659-8.622-1.976c-2.326-1.314-3.486-3.258-3.486-5.825c0-1.469,0.426-2.812,1.283-4.038
	c0.857-1.223,2.034-1.834,3.531-1.834c1.499,0,2.462,0.551,2.893,1.651c-1.164,1.161-1.744,2.508-1.744,4.038
	c0,3.059,1.712,4.585,5.138,4.585c2.021,0,3.777-0.701,5.277-2.108c1.498-1.405,2.245-2.952,2.245-4.636
	c0-1.681-0.365-3.164-1.1-4.448c-0.733-1.286-1.623-2.416-2.659-3.393c-1.045-0.98-2.081-1.958-3.122-2.938
	c-2.509-2.387-3.762-5.122-3.762-8.213c0-3.088,1.177-5.688,3.533-7.796c2.354-2.111,5.58-3.167,9.679-3.167
	c2.571,0,4.739,0.458,6.515,1.377c1.775,0.917,2.664,2.338,2.664,4.267c0,1.927-0.584,3.594-1.747,5
	c-1.159,1.408-2.737,2.107-4.722,2.107c-1.988,0-2.982-0.916-2.982-2.752c0-0.426,0.703-1.068,2.111-1.923
	c1.405-0.857,2.109-1.747,2.109-2.662c0-0.919-0.383-1.606-1.147-2.064c-0.765-0.46-1.85-0.688-3.256-0.688
	c-1.409,0-2.768,0.489-4.084,1.469c-1.317,0.979-1.974,2.262-1.974,3.853c0,1.592,0.675,3.091,2.02,4.495
	c1.346,1.408,2.812,2.599,4.403,3.579s3.061,2.338,4.406,4.084c1.343,1.743,2.016,3.578,2.016,5.504
	c0,1.927-0.441,3.657-1.326,5.184c-0.889,1.53-1.944,2.755-3.167,3.671c3.422-1.469,7.063-5.137,10.918-11.011
	c0.367-0.489,1.01-1.498,1.927-3.025c2.14-3.854,3.334-5.781,3.58-5.781c0.366,0,0.548,0.564,0.548,1.696
	C510.643,125.224,510.338,126.311,509.726,127.349z"/>
<path fill="#024364" d="M543.034,122.117c0.368,0,0.551,0.599,0.551,1.789c0,1.193-0.491,2.617-1.469,4.269
	c-0.98,1.65-1.943,3.212-2.892,4.679c-0.949,1.468-2.218,3.183-3.806,5.14c-1.592,1.956-3.151,3.517-4.681,4.678
	c-3.854,2.812-7.723,4.22-11.605,4.22c-3.886,0-7.021-0.993-9.406-2.982c-2.383-1.987-3.577-5.03-3.577-9.128
	c0-6.241,2.294-12.021,6.88-17.34c4.588-5.322,9.94-7.984,16.059-7.984c2.751,0,4.954,0.721,6.606,2.156
	c1.651,1.439,2.477,3.165,2.477,5.184c0,3.427-1.619,6.179-4.863,8.259s-7.063,3.12-11.47,3.12c-2.568,0-4.467-0.338-5.689-1.012
	c-1.161,3.12-1.74,5.873-1.74,8.259c0,5.139,2.171,7.707,6.515,7.707c2.567,0,5.214-0.994,7.937-2.982
	c2.72-1.987,5.046-4.222,6.972-6.698c1.929-2.479,4.114-6.041,6.56-10.69C542.637,122.332,542.851,122.117,543.034,122.117z
	 M533.307,114.87c0-1.771-0.857-2.661-2.568-2.661c-2.385,0-5.046,1.469-7.984,4.406c-2.934,2.935-4.403,5.319-4.403,7.156
	c0,1.225,1.16,1.836,3.486,1.836s4.759-1.132,7.294-3.397C531.67,119.95,533.061,117.5,533.307,114.87z"/>
</svg>
